<?xml version="1.0" standalone="no"?>
<!DOCTYPE svg PUBLIC "-//W3C//DTD SVG 20010904//EN"
 "http://www.w3.org/TR/2001/REC-SVG-20010904/DTD/svg10.dtd">
<svg version="1.0" xmlns="http://www.w3.org/2000/svg"
 width="82.000000pt" height="82.000000pt" viewBox="0 0 82.000000 82.000000"
 preserveAspectRatio="xMidYMid meet">
<metadata>
Created by potrace 1.14, written by Peter Selinger 2001-2017
</metadata>
<g transform="translate(0.000000,82.000000) scale(0.100000,-0.100000)"
fill="#000000" stroke="none">
<path d="M306 798 c3 -4 -4 -8 -16 -8 -12 0 -34 -7 -49 -15 -16 -8 -31 -11
-35 -8 -3 4 -6 -1 -6 -10 0 -9 -7 -17 -15 -17 -8 0 -24 -9 -35 -20 -11 -11
-20 -18 -20 -15 0 3 -9 -4 -20 -15 -11 -11 -20 -24 -20 -30 0 -5 -4 -10 -10
-10 -5 0 -10 -7 -10 -15 0 -7 -8 -19 -17 -24 -10 -6 -14 -11 -10 -11 4 0 2
-10 -5 -22 -7 -13 -11 -26 -10 -30 1 -5 -2 -8 -8 -8 -5 0 -7 -7 -4 -15 4 -8 2
-15 -4 -15 -12 0 -14 -190 -2 -205 5 -5 9 -14 11 -20 7 -35 22 -64 30 -59 5 3
6 -2 3 -10 -3 -9 -1 -16 6 -16 6 0 8 -5 5 -10 -3 -6 1 -13 9 -16 9 -3 13 -10
10 -15 -3 -5 1 -9 9 -9 8 0 17 -9 20 -20 3 -11 12 -20 21 -20 9 0 16 -6 16
-14 0 -12 16 -21 43 -24 5 0 17 -10 27 -22 13 -15 20 -17 25 -9 6 8 10 7 17
-4 5 -9 15 -14 23 -11 8 4 15 1 15 -5 0 -7 34 -11 100 -11 60 0 100 4 100 10
0 6 11 10 24 10 14 0 28 5 31 11 4 5 12 8 18 6 7 -2 20 5 30 16 9 11 17 16 17
11 0 -5 5 -2 10 6 5 8 13 15 17 15 9 1 69 55 60 55 -3 0 4 11 16 24 44 48 49
56 35 56 -8 1 -5 7 6 15 11 8 16 15 12 15 -5 0 -3 7 4 15 7 8 9 15 5 15 -4 0
-3 6 4 13 8 10 7 17 -2 27 -8 8 -8 11 -1 7 16 -9 25 18 11 32 -8 8 -7 11 3 11
11 0 11 3 2 12 -8 8 -9 15 -1 25 9 10 8 13 -2 13 -12 0 -12 2 0 9 9 6 10 11 3
15 -6 4 -9 13 -5 21 3 8 1 15 -5 15 -6 0 -8 9 -5 20 3 12 0 20 -7 20 -6 0 -9
8 -5 19 3 10 -1 24 -10 31 -8 7 -15 19 -15 27 0 8 -5 11 -12 7 -7 -5 -8 -3 -3
5 4 8 -1 21 -14 32 -12 11 -21 24 -21 29 0 6 -7 10 -16 10 -8 0 -12 5 -9 10 3
6 1 10 -5 10 -6 0 -23 11 -37 24 -15 14 -30 23 -35 20 -4 -3 -8 0 -8 5 0 6 -7
11 -16 11 -9 0 -23 8 -30 18 -10 12 -13 13 -14 3 0 -12 -3 -11 -17 1 -14 12
-41 16 -115 15 -53 0 -95 -4 -92 -9z"/>
</g>
</svg>
